<svg width="90" height="90" viewBox="0 0 90 90" fill="none" xmlns="http://www.w3.org/2000/svg">
<path d="M85.0493 4.9507C81.7473 1.64873 77.7742 0 73.1253 0H16.8747C12.2258 0 8.25266 1.64873 4.9507 4.9507C1.64873 8.25266 0 12.2258 0 16.8747V73.1253C0 77.7742 1.64873 81.7473 4.9507 85.0493C8.25266 88.3513 12.2258 90 16.8747 90H30.0015C30.8574 90 31.5016 89.9685 31.934 89.9099C32.4372 89.809 32.8913 89.5407 33.2224 89.1486C33.6503 88.6981 33.8666 88.0449 33.8666 87.189L33.835 83.2024C33.817 80.6617 33.808 78.6526 33.808 77.166L32.4566 77.4003C31.6007 77.5579 30.5195 77.6255 29.2087 77.6075C27.8423 77.5823 26.4803 77.4452 25.1364 77.1975C23.7057 76.9334 22.3589 76.331 21.2083 75.4407C20.0032 74.5291 19.1044 73.272 18.6316 71.8369L18.0459 70.4855C17.5524 69.4195 16.9323 68.4167 16.199 67.4989C15.3611 66.4042 14.5097 65.6654 13.6493 65.2735L13.2439 64.9807C12.9612 64.7783 12.7041 64.5423 12.4781 64.278C12.2623 64.0327 12.0846 63.7563 11.951 63.4581C11.8339 63.1833 11.933 62.9581 12.2439 62.7824C12.5592 62.6022 13.1223 62.5166 13.9466 62.5166L15.1179 62.6968C15.8972 62.85 16.8657 63.3185 18.0144 64.0978C19.1769 64.8903 20.148 65.9322 20.8569 67.1475C21.7578 68.7467 22.839 69.9675 24.1093 70.8098C25.3796 71.6477 26.659 72.0712 27.9473 72.0712C29.2357 72.0712 30.3484 71.9721 31.2899 71.7784C32.2003 71.5901 33.085 71.2937 33.9251 70.8954C34.2765 68.2827 35.2315 66.2646 36.7946 64.8591C34.7692 64.6605 32.7618 64.3081 30.7898 63.805C28.8654 63.2763 27.0146 62.5091 25.2805 61.5211C23.4662 60.5333 21.8637 59.1987 20.5641 57.593C19.3163 56.0298 18.2892 53.9802 17.4874 51.444C16.69 48.9033 16.2891 45.9708 16.2891 42.6508C16.2891 37.9253 17.8297 33.9026 20.9155 30.5781C19.4739 27.0284 19.6091 23.0417 21.3254 18.6316C22.4606 18.2757 24.1408 18.5415 26.3662 19.4199C28.5915 20.2983 30.2222 21.0506 31.2583 21.6723C32.2944 22.3029 33.1233 22.83 33.7494 23.2579C37.4117 22.2387 41.1963 21.7264 44.9977 21.7353C48.8673 21.7353 52.6152 22.2444 56.2506 23.2579L58.4759 21.8524C60.1876 20.8247 61.9931 19.9619 63.8681 19.2757C65.9402 18.4919 67.5169 18.2802 68.616 18.6316C70.3729 23.0462 70.526 27.0284 69.08 30.5826C72.1658 33.9026 73.7109 37.9253 73.7109 42.6553C73.7109 45.9753 73.31 48.9169 72.5081 51.471C71.7108 54.0297 70.6747 56.0794 69.4044 57.6245C68.0818 59.2096 66.4726 60.5315 64.6609 61.5211C62.7689 62.5752 60.931 63.3365 59.1516 63.805C57.1798 64.3098 55.1724 64.6637 53.1468 64.8636C55.1739 66.6204 56.192 69.3909 56.192 73.1793V87.189C56.192 87.8512 56.2866 88.3873 56.4848 88.7972C56.5759 88.9947 56.7058 89.1719 56.8668 89.3181C57.0278 89.4644 57.2165 89.5768 57.4218 89.6486C57.8542 89.8018 58.2326 89.9009 58.566 89.9369C58.8993 89.982 59.3768 89.9955 59.9985 89.9955H73.1253C77.7742 89.9955 81.7473 88.3468 85.0493 85.0448C88.3468 81.7473 90 77.7697 90 73.1208V16.8747C90 12.2258 88.3468 8.25266 85.0448 4.9507H85.0493Z" fill="#A3A5A8"/>
</svg>
