<svg width="90" height="90" viewBox="0 0 90 90" fill="none" xmlns="http://www.w3.org/2000/svg">
<path d="M13.8867 75.3516H27.4219V34.6875H13.8867V75.3516ZM28.3008 22.1484C28.2617 20.1172 27.5586 18.4375 26.1914 17.1094C24.8242 15.7812 23.0078 15.1172 20.7422 15.1172C18.4766 15.1172 16.6309 15.7812 15.2051 17.1094C13.7793 18.4375 13.0664 20.1172 13.0664 22.1484C13.0664 24.1406 13.7598 25.8105 15.1465 27.1582C16.5332 28.5059 18.3398 29.1797 20.5664 29.1797H20.625C22.9297 29.1797 24.7852 28.5059 26.1914 27.1582C27.5977 25.8105 28.3008 24.1406 28.3008 22.1484ZM62.5781 75.3516H76.1133V52.0312C76.1133 46.0156 74.6875 41.4648 71.8359 38.3789C68.9844 35.293 65.2148 33.75 60.5273 33.75C55.2148 33.75 51.1328 36.0352 48.2812 40.6055H48.3984V34.6875H34.8633C34.9805 37.2656 34.9805 50.8203 34.8633 75.3516H48.3984V52.6172C48.3984 51.1328 48.5352 50.0391 48.8086 49.3359C49.3945 47.9688 50.2734 46.8066 51.4453 45.8496C52.6172 44.8926 54.0625 44.4141 55.7812 44.4141C60.3125 44.4141 62.5781 47.4805 62.5781 53.6133V75.3516ZM90 16.875V73.125C90 77.7734 88.3496 81.748 85.0488 85.0488C81.748 88.3496 77.7734 90 73.125 90H16.875C12.2266 90 8.25195 88.3496 4.95117 85.0488C1.65039 81.748 0 77.7734 0 73.125V16.875C0 12.2266 1.65039 8.25195 4.95117 4.95117C8.25195 1.65039 12.2266 0 16.875 0H73.125C77.7734 0 81.748 1.65039 85.0488 4.95117C88.3496 8.25195 90 12.2266 90 16.875Z" fill="#A3A5A8"/>
</svg>
